<svg width="194" height="40" viewBox="0 0 194 40" fill="none" xmlns="http://www.w3.org/2000/svg">
<path d="M13.4391 10.0012C14.7031 9.96844 15.9626 10.1661 17.1558 10.5845C18.0941 10.9174 18.9278 11.4924 19.5724 12.2512C20.1505 12.9987 20.4824 13.9071 20.5224 14.8512C20.5634 16.0243 20.3413 17.1917 19.8724 18.2679H14.5391C14.2118 18.2835 13.8872 18.2023 13.6058 18.0345C13.4566 17.9329 13.3481 17.7819 13.2993 17.6081C13.2505 17.4343 13.2646 17.2489 13.3391 17.0845C13.3297 17.0126 13.3297 16.9398 13.3391 16.8679V16.6512C13.4027 16.5768 13.4381 16.4824 13.4391 16.3845C13.5449 16.0224 13.5844 15.6441 13.5558 15.2679C13.5558 14.9845 13.2891 14.8345 12.8891 14.8345C12.6693 14.8266 12.4501 14.8623 12.2441 14.9396C12.0382 15.0168 11.8495 15.134 11.6891 15.2845C11.3052 15.7357 11.011 16.2562 10.8224 16.8179C10.7439 17.0179 10.7258 17.2367 10.7702 17.447C10.8146 17.6573 10.9197 17.8499 11.0724 18.0012C11.4625 18.4297 11.8921 18.8203 12.3558 19.1679L14.0224 20.5512C14.6379 21.0503 15.1672 21.6471 15.5891 22.3179C16.1355 23.008 16.5071 23.8199 16.6724 24.6845C16.7342 25.7608 16.534 26.8359 16.0891 27.8179C15.7744 28.6954 15.3306 29.5211 14.7724 30.2679C14.2945 30.9482 13.6747 31.5168 12.9558 31.9345C12.1923 32.3692 11.3567 32.6627 10.4891 32.8012C9.38914 32.997 8.27287 33.0863 7.15577 33.0679C5.85467 33.0843 4.56141 32.8641 3.3391 32.4179C2.39704 32.0923 1.56154 31.5161 0.922438 30.7512C0.359208 29.9981 0.0393896 29.091 0.00577173 28.1512C-0.0390045 26.9632 0.177181 25.7799 0.639105 24.6845H5.97244C6.35381 24.6664 6.72822 24.7912 7.02244 25.0345C7.27244 25.2679 7.27244 25.6845 7.02244 26.2679C7.01146 26.3397 7.01146 26.4127 7.02244 26.4845C7.02244 26.4845 7.02244 26.6012 7.02244 26.6345C6.95144 26.9753 6.95144 27.3271 7.02244 27.6679C7.02244 27.9512 7.2891 28.1012 7.67244 28.1012C7.89024 28.1137 8.10823 28.08 8.31214 28.0025C8.51606 27.925 8.70131 27.8052 8.85577 27.6512C9.24238 27.199 9.54188 26.6791 9.73911 26.1179C9.81202 25.9196 9.82724 25.7048 9.78299 25.4983C9.73874 25.2918 9.63684 25.1021 9.48911 24.9512C9.10393 24.5129 8.6738 24.1163 8.20577 23.7679L6.5391 22.3845C5.94157 21.8718 5.41972 21.277 4.9891 20.6179C4.47248 19.947 4.11874 19.1654 3.95577 18.3345C3.89135 17.2544 4.08562 16.1745 4.52244 15.1845C4.85667 14.3125 5.30502 13.4887 5.85577 12.7345C6.34174 12.0672 6.95315 11.5011 7.65577 11.0679C8.43176 10.6478 9.27023 10.3551 10.1391 10.2012C11.2312 10.0388 12.3354 9.97193 13.4391 10.0012ZM52.3224 10.0012C53.462 9.98261 54.5942 10.1864 55.6558 10.6012C56.5542 10.9313 57.3246 11.5382 57.8558 12.3345C58.3611 13.2146 58.604 14.2209 58.5558 15.2345C58.5143 16.5811 58.2262 17.9086 57.7058 19.1512C57.1891 20.5679 56.6724 21.9012 56.1724 23.1179L54.6558 26.6679C54.2072 27.8293 53.6491 28.9454 52.9891 30.0012C52.5205 30.7472 51.9087 31.393 51.1891 31.9012C50.5303 32.3371 49.7859 32.6269 49.0058 32.7512C48.0793 32.8926 47.143 32.9595 46.2058 32.9512H43.1724C42.3353 32.9527 41.503 32.8234 40.7058 32.5679C39.9651 32.3353 39.3098 31.8888 38.8224 31.2845C38.3059 30.5781 38.0259 29.7264 38.0224 28.8512C38.0167 27.5617 38.2777 26.2849 38.7891 25.1012L40.0058 22.2512L41.1058 19.4512C41.5058 18.4401 41.9058 17.4401 42.3058 16.4512C42.6667 15.5075 43.1425 14.6118 43.7224 13.7845C44.2327 12.9826 44.8686 12.2679 45.6058 11.6679C46.3464 11.1002 47.1737 10.6556 48.0558 10.3512C49.0068 10.0701 49.9986 9.95173 50.9891 10.0012H52.3224ZM107.022 10.0012C108.287 9.96732 109.546 10.165 110.739 10.5845C111.68 10.9131 112.514 11.4888 113.156 12.2512C113.734 12.9987 114.066 13.9071 114.106 14.8512C114.161 16.0237 113.945 17.1932 113.472 18.2679H108.139C107.806 18.2868 107.475 18.2056 107.189 18.0345C107.061 17.9318 106.968 17.7905 106.926 17.6314C106.884 17.4723 106.895 17.304 106.956 17.1512C106.961 17.0791 106.961 17.0067 106.956 16.9345C106.951 16.8624 106.951 16.79 106.956 16.7179C106.98 16.6306 106.98 16.5384 106.956 16.4512C107.07 16.0907 107.109 15.7108 107.072 15.3345C107.072 15.0512 106.822 14.9012 106.422 14.9012C106.203 14.8933 105.983 14.929 105.777 15.0062C105.571 15.0835 105.383 15.2007 105.222 15.3512C104.832 15.8008 104.532 16.3214 104.339 16.8845C104.265 17.0852 104.249 17.3029 104.293 17.5123C104.337 17.7217 104.44 17.9143 104.589 18.0679C104.979 18.4964 105.409 18.887 105.872 19.2345C106.422 19.6512 106.989 20.1179 107.539 20.6179C108.145 21.1218 108.668 21.718 109.089 22.3845C109.535 23.1011 109.809 23.9111 109.889 24.7512C109.952 25.8258 109.758 26.9 109.322 27.8845C108.995 28.7595 108.546 29.5842 107.989 30.3345C107.517 31.0141 106.903 31.5829 106.189 32.0012C105.42 32.4357 104.579 32.7292 103.706 32.8678C102.606 33.0637 101.49 33.153 100.372 33.1345C99.109 33.159 97.851 32.9616 96.6558 32.5512C95.7162 32.2299 94.885 31.6527 94.2558 30.8845C93.6655 30.1361 93.3272 29.2202 93.2891 28.2678C93.2507 27.0787 93.4725 25.8956 93.9391 24.8012H99.2391C99.6205 24.7831 99.9949 24.9079 100.289 25.1512C100.556 25.3845 100.556 25.8012 100.289 26.3845C100.277 26.4562 100.277 26.5295 100.289 26.6012C100.282 26.651 100.282 26.7014 100.289 26.7512C100.192 27.0865 100.163 27.438 100.206 27.7845C100.206 28.0679 100.472 28.2179 100.856 28.2179C101.076 28.2257 101.295 28.19 101.501 28.1128C101.707 28.0356 101.895 27.9183 102.056 27.7679C102.436 27.3141 102.73 26.7944 102.922 26.2345C103.002 26.0385 103.022 25.8236 102.98 25.6163C102.939 25.409 102.838 25.2183 102.689 25.0679C102.298 24.6294 101.862 24.2328 101.389 23.8845L99.7224 22.5012C99.1705 21.9455 98.7043 21.3107 98.3391 20.6179C97.9106 19.9249 97.6429 19.1446 97.5558 18.3345C97.4861 17.2541 97.6806 16.1729 98.1224 15.1845C98.4451 14.3105 98.8882 13.4859 99.4391 12.7345C99.927 12.063 100.545 11.4962 101.256 11.0679C102.026 10.6478 102.859 10.3552 103.722 10.2012C104.815 10.0388 105.919 9.97193 107.022 10.0012ZM35.5224 10.3679C36.2735 10.3464 37.0198 10.4945 37.7058 10.8012C38.2812 11.0753 38.7752 11.4946 39.1391 12.0179C39.5005 12.5565 39.7026 13.1862 39.7224 13.8345C39.7458 14.5949 39.6036 15.3512 39.3058 16.0512L37.6391 20.4678C37.0808 21.7817 36.2516 22.9629 35.2058 23.9345C34.6623 24.4766 34.0518 24.9471 33.3891 25.3345C32.7756 25.6826 32.1203 25.9515 31.4391 26.1345C30.7574 26.3172 30.0598 26.4343 29.3558 26.4845C28.6391 26.4845 27.9058 26.4845 27.1224 26.4845H25.8224L23.3391 32.6679H16.6724L25.5058 10.3012L35.5224 10.3679ZM73.5391 10.3679C74.5035 10.4247 75.4404 10.7103 76.2724 11.2012C76.9075 11.6185 77.4241 12.1925 77.7724 12.8679C78.0836 13.5342 78.2266 14.2667 78.1891 15.0012C78.137 15.8008 77.9627 16.5877 77.6724 17.3345C77.387 18.0753 77.006 18.7757 76.5391 19.4178C76.1245 19.964 75.6554 20.4666 75.1391 20.9179C74.68 21.3306 74.1704 21.6834 73.6224 21.9679C73.1359 22.234 72.6352 22.4733 72.1224 22.6845C72.5543 22.8221 72.9391 23.0775 73.2336 23.4221C73.5281 23.7666 73.7205 24.1865 73.7891 24.6345C73.9788 25.7983 73.8223 26.9922 73.3391 28.0679L71.5058 32.6679H65.9558C65.6697 32.6613 65.3964 32.5484 65.1891 32.3512C65.0634 32.2273 64.9821 32.0654 64.958 31.8905C64.9339 31.7157 64.9682 31.5378 65.0558 31.3845L67.0558 26.3845C67.1392 26.2401 67.183 26.0763 67.183 25.9095C67.183 25.7428 67.1392 25.5789 67.0558 25.4345C66.9695 25.3083 66.852 25.2066 66.7147 25.1394C66.5774 25.0722 66.425 25.0418 66.2724 25.0512H65.0058L61.9058 32.6679H55.2391L64.0724 10.3012L73.5391 10.3679ZM98.3391 10.3012L96.2724 15.4679H90.8891L84.0058 32.6679H77.5891L84.4724 15.4679H79.2558L81.3391 10.3012H98.3391ZM50.6891 15.4679C50.3117 15.4384 49.9355 15.5383 49.6224 15.7512C49.3307 16.0587 49.1139 16.4294 48.9891 16.8345L45.2391 26.2679C44.9391 27.0567 44.8558 27.5567 44.9891 27.7679C45.0762 27.886 45.193 27.9791 45.3276 28.0376C45.4622 28.0961 45.6099 28.1181 45.7558 28.1012C46.1316 28.1154 46.5032 28.0167 46.8224 27.8179C47.1609 27.5474 47.4106 27.1816 47.5391 26.7678L51.4391 16.7679C51.5164 16.6245 51.5569 16.4641 51.5569 16.3012C51.5569 16.1383 51.5164 15.9779 51.4391 15.8345C51.36 15.7103 51.2481 15.6103 51.1157 15.5456C50.9834 15.4809 50.8358 15.454 50.6891 15.4679ZM31.3558 15.4679H30.1891L28.0391 20.8179H29.2391C29.6228 20.8147 29.9937 20.6794 30.2891 20.4345C30.625 20.1921 30.8897 19.864 31.0558 19.4845L32.1058 16.8012C32.1831 16.6578 32.2236 16.4974 32.2236 16.3345C32.2236 16.1716 32.1831 16.0112 32.1058 15.8679C32.031 15.7374 31.9209 15.6307 31.7883 15.56C31.6556 15.4893 31.5057 15.4573 31.3558 15.4679ZM70.0058 15.4679H68.8058L67.3891 18.9679H68.6224C69.0024 18.9563 69.367 18.8151 69.6558 18.5679C69.9899 18.3306 70.2546 18.0084 70.4224 17.6345L70.7558 16.8012C70.8265 16.6558 70.8633 16.4962 70.8633 16.3345C70.8633 16.1728 70.8265 16.0132 70.7558 15.8679C70.6825 15.7361 70.5728 15.6282 70.4397 15.5573C70.3067 15.4863 70.156 15.4553 70.0058 15.4679Z" fill="#23336F"/>
<path d="M132.957 10.2833L129.774 18.3333H133.241L118.074 40L120.957 32.8667L124.724 23.5333H121.291L122.607 20.2L126.541 10.2833H132.957ZM186.857 10C187.997 9.9797 189.129 10.1836 190.191 10.6C191.075 10.9577 191.822 11.5883 192.324 12.4C192.829 13.2801 193.072 14.2863 193.024 15.3C192.974 16.6455 192.686 17.9715 192.174 19.2167C191.657 20.6333 191.141 21.9667 190.624 23.1833C190.107 24.4 189.607 25.6167 189.107 26.8C188.665 27.9643 188.107 29.081 187.441 30.1333C186.972 30.8794 186.36 31.5252 185.641 32.0333C184.977 32.4719 184.227 32.7619 183.441 32.8833C182.514 33.026 181.578 33.0929 180.641 33.0833H177.624C176.787 33.0849 175.954 32.9555 175.157 32.7C174.428 32.4368 173.796 31.9606 173.341 31.3333C172.826 30.6248 172.541 29.7755 172.524 28.9C172.525 27.6095 172.792 26.3331 173.307 25.15L174.441 22.25C174.791 21.4 175.157 20.4667 175.557 19.45L176.757 16.45C177.119 15.51 177.589 14.6151 178.157 13.7833C178.708 12.9816 179.376 12.2679 180.141 11.6667C180.889 11.102 181.721 10.6577 182.607 10.35C183.558 10.0676 184.55 9.94925 185.541 10H186.857ZM118.524 28.9L117.024 32.7333H112.857C112.646 32.736 112.439 32.6654 112.274 32.5333C112.107 32.4 112.091 32.1667 112.274 31.8167L113.341 28.8333L118.524 28.9ZM143.241 10.3C143.722 10.2927 144.188 10.4719 144.541 10.8C144.927 11.1406 145.181 11.607 145.257 12.1167L146.757 21.2833L151.157 10.3H157.574L148.607 32.6667H143.907C143.418 32.6721 142.946 32.4867 142.591 32.15C142.221 31.798 141.976 31.3362 141.891 30.8333L140.391 21.6667L135.991 32.6667H129.574L138.541 10.3H143.241ZM176.457 10.3L174.241 15.8333H164.524L162.974 19.5833H171.307L169.174 25H160.841L157.807 32.6667H151.341L160.307 10.3H176.457ZM185.241 15.4667C184.858 15.4333 184.475 15.5334 184.157 15.75C183.872 16.0595 183.661 16.43 183.541 16.8333L179.791 26.2667C179.491 27.05 179.407 27.55 179.524 27.7667C179.611 27.8848 179.728 27.9779 179.862 28.0364C179.997 28.095 180.145 28.1169 180.291 28.1C180.672 28.1145 181.049 28.0159 181.374 27.8167C181.707 27.5416 181.956 27.1775 182.091 26.7667L185.991 16.7667C186.068 16.6233 186.108 16.4629 186.108 16.3C186.108 16.1371 186.068 15.9767 185.991 15.8333C185.911 15.7091 185.8 15.6091 185.667 15.5444C185.535 15.4797 185.387 15.4528 185.241 15.4667ZM132.374 0H132.624C133.535 0.0754487 134.383 0.491305 135.001 1.16468C135.619 1.83806 135.96 2.71951 135.957 3.63333C135.962 4.59565 135.586 5.52081 134.912 6.2075C134.238 6.89418 133.319 7.28683 132.357 7.3C131.395 7.28683 130.477 6.89418 129.803 6.2075C129.128 5.52081 128.753 4.59565 128.757 3.63333C128.757 2.67259 129.138 1.75096 129.816 1.07005C130.493 0.389148 131.413 0.00440706 132.374 0Z" fill="#ED1833"/>
</svg>
